<?xml version="1.0" encoding="UTF-8" standalone="no"?>
<!-- Created with Inkscape (http://www.inkscape.org/) -->

<svg
   xmlns:dc="http://purl.org/dc/elements/1.1/"
   xmlns:cc="http://creativecommons.org/ns#"
   xmlns:rdf="http://www.w3.org/1999/02/22-rdf-syntax-ns#"
   xmlns:svg="http://www.w3.org/2000/svg"
   xmlns="http://www.w3.org/2000/svg"
   xmlns:xlink="http://www.w3.org/1999/xlink"
   xmlns:sodipodi="http://sodipodi.sourceforge.net/DTD/sodipodi-0.dtd"
   xmlns:inkscape="http://www.inkscape.org/namespaces/inkscape"
   inkscape:export-ydpi="90.000000"
   inkscape:export-xdpi="90.000000"
   width="41"
   height="41"
   id="svg11300"
   sodipodi:version="0.32"
   inkscape:version="0.91 r"
   sodipodi:docname="close-pressed.svg"
   inkscape:output_extension="org.inkscape.output.svg.inkscape"
   version="1.0"
   style="display:inline;enable-background:new">
  <sodipodi:namedview
     stroke="#ef2929"
     fill="#f57900"
     id="base"
     pagecolor="#8c8c8c"
     bordercolor="#ff5e00"
     borderopacity="1"
     inkscape:pageopacity="1"
     inkscape:pageshadow="2"
     inkscape:zoom="11.710378"
     inkscape:cx="0.50246332"
     inkscape:cy="20.5"
     inkscape:current-layer="layer1"
     showgrid="true"
     inkscape:grid-bbox="true"
     inkscape:document-units="px"
     inkscape:showpageshadow="false"
     inkscape:window-width="1600"
     inkscape:window-height="875"
     inkscape:window-x="0"
     inkscape:window-y="25"
     width="400px"
     height="300px"
     inkscape:snap-nodes="false"
     inkscape:snap-bbox="true"
     gridtolerance="10000"
     inkscape:object-nodes="true"
     inkscape:snap-grids="true"
     showguides="true"
     inkscape:guide-bbox="true"
     inkscape:window-maximized="1"
     inkscape:bbox-nodes="true"
     inkscape:bbox-paths="false"
     inkscape:snap-bbox-edge-midpoints="false"
     inkscape:snap-bbox-midpoints="false"
     objecttolerance="10000"
     guidetolerance="10000"
     borderlayer="true"
     showborder="true"
     guidecolor="#ff0b00"
     guideopacity="1"
     guidehicolor="#001aff"
     guidehiopacity="0.49803922">
    <inkscape:grid
       type="xygrid"
       id="grid4347"
       empspacing="5"
       visible="true"
       enabled="true"
       snapvisiblegridlinesonly="true" />
  </sodipodi:namedview>
  <defs
     id="defs3">
    <linearGradient
       id="linearGradient5902">
      <stop
         style="stop-color:#000000;stop-opacity:1;"
         offset="0"
         id="stop5904" />
      <stop
         style="stop-color:#000000;stop-opacity:0;"
         offset="1"
         id="stop5906" />
    </linearGradient>
    <linearGradient
       id="linearGradient4006-3-3">
      <stop
         style="stop-color:#ffffff;stop-opacity:1;"
         offset="0"
         id="stop4008-3-1" />
      <stop
         style="stop-color:#ffffff;stop-opacity:0;"
         offset="1"
         id="stop4010-8-5" />
    </linearGradient>
    <linearGradient
       inkscape:collect="always"
       xlink:href="#linearGradient4006-3-3"
       id="linearGradient5908"
       x1="3.9999969"
       y1="36.967743"
       x2="11.741933"
       y2="36.967743"
       gradientUnits="userSpaceOnUse" />
    <linearGradient
       inkscape:collect="always"
       xlink:href="#linearGradient5902"
       id="linearGradient4056"
       x1="4"
       y1="21"
       x2="34"
       y2="21"
       gradientUnits="userSpaceOnUse" />
    <linearGradient
       inkscape:collect="always"
       xlink:href="#linearGradient5902"
       id="linearGradient4157"
       x1="37"
       y1="7"
       x2="37"
       y2="34"
       gradientUnits="userSpaceOnUse" />
    <linearGradient
       inkscape:collect="always"
       xlink:href="#linearGradient5902"
       id="linearGradient4170"
       x1="8"
       y1="20.5"
       x2="33"
       y2="20.5"
       gradientUnits="userSpaceOnUse"
       gradientTransform="matrix(0,1,-1,0,41,259)" />
    <linearGradient
       inkscape:collect="always"
       xlink:href="#linearGradient5902"
       id="linearGradient4183"
       x1="9"
       y1="20.5"
       x2="32"
       y2="20.5"
       gradientUnits="userSpaceOnUse"
       gradientTransform="matrix(0,1,-1,0,41,259)" />
  </defs>
  <metadata
     id="metadata4">
    <rdf:RDF>
      <cc:Work
         rdf:about="">
        <dc:format>image/svg+xml</dc:format>
        <dc:type
           rdf:resource="http://purl.org/dc/dcmitype/StillImage" />
        <dc:creator>
          <cc:Agent>
            <dc:title />
          </cc:Agent>
        </dc:creator>
        <dc:source />
        <cc:license
           rdf:resource="" />
        <dc:title />
        <dc:subject>
          <rdf:Bag />
        </dc:subject>
        <dc:date />
        <dc:rights>
          <cc:Agent>
            <dc:title />
          </cc:Agent>
        </dc:rights>
        <dc:publisher>
          <cc:Agent>
            <dc:title />
          </cc:Agent>
        </dc:publisher>
        <dc:identifier />
        <dc:relation />
        <dc:language />
        <dc:coverage />
        <dc:description />
        <dc:contributor>
          <cc:Agent>
            <dc:title />
          </cc:Agent>
        </dc:contributor>
      </cc:Work>
      <cc:Work
         rdf:about="">
        <dc:format>image/svg+xml</dc:format>
        <dc:type
           rdf:resource="http://purl.org/dc/dcmitype/StillImage" />
      </cc:Work>
    </rdf:RDF>
  </metadata>
  <g
     style="display:inline"
     inkscape:groupmode="layer"
     inkscape:label="Base"
     id="layer1"
     transform="translate(0,-259)">
    <circle
       id="path5896"
       style="opacity:0.6;fill:#141414;fill-opacity:1;stroke:none"
       cx="20.500002"
       cy="279.5"
       r="16.499998" />
    <path
       sodipodi:type="arc"
       style="fill:url(#linearGradient5908);fill-opacity:1;stroke:none;opacity:0.1"
       id="path5900"
       sodipodi:cx="19"
       sodipodi:cy="21"
       sodipodi:rx="15"
       sodipodi:ry="15"
       d="M 34,21 A 15,15 0 0 1 19,36 15,15 0 0 1 4,21 15,15 0 0 1 19,6 15,15 0 0 1 34,21 Z"
       transform="matrix(0,-1.0333333,1.0333333,0,-1.1999994,299.13333)" />
    <path
       transform="matrix(0.96666665,0,0,0.96666665,2.1333339,259.2)"
       d="M 34,21 A 15,15 0 0 1 19,36 15,15 0 0 1 4,21 15,15 0 0 1 19,6 15,15 0 0 1 34,21 Z"
       sodipodi:ry="15"
       sodipodi:rx="15"
       sodipodi:cy="21"
       sodipodi:cx="19"
       id="path5698"
       style="fill:#000000;fill-opacity:1;stroke:none"
       sodipodi:type="arc" />
    <path
       sodipodi:type="arc"
       style="fill:#bf5151;fill-opacity:1;stroke:none"
       id="path5700"
       sodipodi:cx="19"
       sodipodi:cy="21"
       sodipodi:rx="15"
       sodipodi:ry="15"
       d="M 34,21 A 15,15 0 0 1 19,36 15,15 0 0 1 4,21 15,15 0 0 1 19,6 15,15 0 0 1 34,21 Z"
       transform="matrix(0.89999999,0,0,0.89999999,3.4,260.6)" />
    <path
       transform="matrix(0,0.89999999,-0.89999999,0,39.4,262.4)"
       d="M 34,21 A 15,15 0 0 1 19,36 15,15 0 0 1 4,21 15,15 0 0 1 19,6 15,15 0 0 1 34,21 Z"
       sodipodi:ry="15"
       sodipodi:rx="15"
       sodipodi:cy="21"
       sodipodi:cx="19"
       id="path4048"
       style="fill:url(#linearGradient4056);fill-opacity:1;stroke:none;opacity:0.1"
       sodipodi:type="arc" />
    <path
       sodipodi:nodetypes="ccccccccccccccccc"
       inkscape:connector-curvature="0"
       id="path4167"
       d="M 17.502513,275 16,275 l 0,1.50251 2.997487,2.9975 L 16,282.49749 16,284 17.502513,284 20.5,281.00251 23.497487,284 25,284 25,282.49749 22.002513,279.50001 25,276.50251 25,275 23.497487,275 20.5,277.99749 z"
       style="font-size:medium;font-style:normal;font-variant:normal;font-weight:normal;font-stretch:normal;text-indent:0;text-align:start;text-decoration:none;line-height:normal;letter-spacing:normal;word-spacing:normal;text-transform:none;direction:ltr;block-progression:tb;writing-mode:lr-tb;text-anchor:start;baseline-shift:baseline;opacity:1;color:#000000;fill:#ffffff;fill-opacity:1;stroke:none;stroke-width:2;marker:none;visibility:visible;display:inline;overflow:visible;enable-background:accumulate;font-family:Sans;-inkscape-font-specification:Sans" />
    <path
       style="fill:url(#linearGradient4157);fill-opacity:1;stroke:none;opacity:0.2"
       d="M 20.5 7 C 13.044156 7 7 13.044156 7 20.5 C 7 27.955844 13.044156 34 20.5 34 C 27.955844 34 34 27.955844 34 20.5 C 34 13.044156 27.955844 7 20.5 7 z M 20.5 8 C 27.40356 8 33 13.59644 33 20.5 C 33 27.40356 27.40356 33 20.5 33 C 13.59644 33 8 27.40356 8 20.5 C 8 13.59644 13.59644 8 20.5 8 z "
       transform="translate(0,259)"
       id="path4146" />
    <path
       style="fill:url(#linearGradient4170);fill-opacity:1;stroke:none;opacity:0.08"
       d="M 33,279.5 C 33,272.59644 27.40356,267 20.5,267 13.59644,267 8,272.59644 8,279.5 8,286.40356 13.59644,292 20.5,292 27.40356,292 33,286.40356 33,279.5 z m -1,0 C 32,285.85127 26.851274,291 20.5,291 14.148726,291 9,285.85127 9,279.5 9,273.14873 14.148726,268 20.5,268 c 6.351274,0 11.5,5.14873 11.5,11.5 z"
       id="path4159"
       inkscape:connector-curvature="0" />
    <path
       style="fill:url(#linearGradient4183);fill-opacity:1;stroke:none;opacity:0.04"
       d="M 32,279.5 C 32,273.14873 26.851275,268 20.5,268 14.148725,268 9,273.14873 9,279.5 9,285.85127 14.148725,291 20.5,291 26.851275,291 32,285.85127 32,279.5 z m -1,0 C 31,285.29899 26.29899,290 20.5,290 14.70101,290 10,285.29899 10,279.5 10,273.70101 14.70101,269 20.5,269 c 5.79899,0 10.5,4.70101 10.5,10.5 z"
       id="path4172"
       inkscape:connector-curvature="0" />
    <path
       inkscape:connector-curvature="0"
       style="display:inline;opacity:1;fill:#000000;fill-opacity:1;stroke:none;enable-background:new"
       d="M 20.5,262 A 17.5,17.5 0 0 0 3,279.5 17.5,17.5 0 0 0 20.5,297 17.5,17.5 0 0 0 38,279.5 17.5,17.5 0 0 0 20.5,262 Z m 0,1 A 16.5,16.5 0 0 1 37,279.5 16.5,16.5 0 0 1 20.5,296 16.5,16.5 0 0 1 4,279.5 16.5,16.5 0 0 1 20.5,263 Z"
       id="circle3349" />
    <path
       inkscape:connector-curvature="0"
       style="display:inline;opacity:0.2;fill:#141414;fill-opacity:1;stroke:none;enable-background:new"
       d="M 20.5,261 A 18.499998,18.499998 0 0 0 2,279.5 18.499998,18.499998 0 0 0 20.5,298 18.499998,18.499998 0 0 0 39,279.5 18.499998,18.499998 0 0 0 20.5,261 Z m 0,1 A 17.499998,17.499998 0 0 1 38,279.5 17.499998,17.499998 0 0 1 20.5,297 17.499998,17.499998 0 0 1 3,279.5 17.499998,17.499998 0 0 1 20.5,262 Z"
       id="circle3360" />
  </g>
</svg>
