<?xml version="1.0" encoding="UTF-8" standalone="no"?>
<!-- Created with Inkscape (http://www.inkscape.org/) -->

<svg
   xmlns:dc="http://purl.org/dc/elements/1.1/"
   xmlns:cc="http://creativecommons.org/ns#"
   xmlns:rdf="http://www.w3.org/1999/02/22-rdf-syntax-ns#"
   xmlns:svg="http://www.w3.org/2000/svg"
   xmlns="http://www.w3.org/2000/svg"
   xmlns:xlink="http://www.w3.org/1999/xlink"
   xmlns:sodipodi="http://sodipodi.sourceforge.net/DTD/sodipodi-0.dtd"
   xmlns:inkscape="http://www.inkscape.org/namespaces/inkscape"
   inkscape:export-ydpi="90.000000"
   inkscape:export-xdpi="90.000000"
   width="15"
   height="16"
   id="svg11300"
   sodipodi:version="0.32"
   inkscape:version="0.91 r"
   sodipodi:docname="radiobutton-checked.svg"
   inkscape:output_extension="org.inkscape.output.svg.inkscape"
   version="1.0"
   style="display:inline;enable-background:new">
  <sodipodi:namedview
     stroke="#ef2929"
     fill="#f57900"
     id="base"
     pagecolor="#8c8c8c"
     bordercolor="#ff5e00"
     borderopacity="1"
     inkscape:pageopacity="1"
     inkscape:pageshadow="2"
     inkscape:zoom="37.722222"
     inkscape:cx="8.3814432"
     inkscape:cy="8.9469809"
     inkscape:current-layer="layer1"
     showgrid="true"
     inkscape:grid-bbox="true"
     inkscape:document-units="px"
     inkscape:showpageshadow="false"
     inkscape:window-width="1600"
     inkscape:window-height="875"
     inkscape:window-x="0"
     inkscape:window-y="25"
     width="400px"
     height="300px"
     inkscape:snap-nodes="true"
     inkscape:snap-bbox="true"
     gridtolerance="10000"
     inkscape:object-nodes="false"
     inkscape:snap-grids="true"
     showguides="true"
     inkscape:guide-bbox="true"
     inkscape:window-maximized="1"
     inkscape:bbox-nodes="true"
     inkscape:bbox-paths="false"
     inkscape:snap-bbox-edge-midpoints="false"
     inkscape:snap-bbox-midpoints="false"
     objecttolerance="10000"
     guidetolerance="10000"
     borderlayer="true"
     showborder="true"
     guidecolor="#ff0b00"
     guideopacity="1"
     guidehicolor="#001aff"
     guidehiopacity="0.49803922"
     inkscape:object-paths="false"
     inkscape:snap-intersection-paths="true"
     inkscape:snap-smooth-nodes="false"
     inkscape:snap-midpoints="false"
     inkscape:snap-global="true"
     inkscape:snap-page="false">
    <inkscape:grid
       type="xygrid"
       id="grid3123"
       empspacing="4"
       visible="true"
       enabled="true"
       snapvisiblegridlinesonly="true" />
  </sodipodi:namedview>
  <defs
     id="defs3">
    <linearGradient
       id="linearGradient4227">
      <stop
         style="stop-color:#000000;stop-opacity:1;"
         offset="0"
         id="stop4229" />
      <stop
         style="stop-color:#000000;stop-opacity:0;"
         offset="1"
         id="stop4231" />
    </linearGradient>
    <linearGradient
       id="linearGradient3992-4-9">
      <stop
         style="stop-color:#ffffff;stop-opacity:0"
         offset="0"
         id="stop3994-7-9" />
      <stop
         style="stop-color:#ffffff;stop-opacity:1"
         offset="1"
         id="stop3996-2-5" />
    </linearGradient>
    <linearGradient
       inkscape:collect="always"
       xlink:href="#linearGradient4227"
       id="linearGradient4434"
       gradientUnits="userSpaceOnUse"
       gradientTransform="matrix(0.6,0,0,0.6,3,4)"
       x1="15"
       y1="15"
       x2="15"
       y2="10" />
    <linearGradient
       inkscape:collect="always"
       xlink:href="#linearGradient3992-4-9"
       id="linearGradient4720"
       x1="0"
       y1="7.5"
       x2="15"
       y2="7.5"
       gradientUnits="userSpaceOnUse"
       gradientTransform="matrix(0.46666667,0,0,0.46666667,-295,-11)" />
  </defs>
  <metadata
     id="metadata4">
    <rdf:RDF>
      <cc:Work
         rdf:about="">
        <dc:format>image/svg+xml</dc:format>
        <dc:type
           rdf:resource="http://purl.org/dc/dcmitype/StillImage" />
        <dc:creator>
          <cc:Agent>
            <dc:title />
          </cc:Agent>
        </dc:creator>
        <dc:source />
        <cc:license
           rdf:resource="" />
        <dc:title />
        <dc:subject>
          <rdf:Bag />
        </dc:subject>
        <dc:date />
        <dc:rights>
          <cc:Agent>
            <dc:title />
          </cc:Agent>
        </dc:rights>
        <dc:publisher>
          <cc:Agent>
            <dc:title />
          </cc:Agent>
        </dc:publisher>
        <dc:identifier />
        <dc:relation />
        <dc:language />
        <dc:coverage />
        <dc:description />
        <dc:contributor>
          <cc:Agent>
            <dc:title />
          </cc:Agent>
        </dc:contributor>
      </cc:Work>
      <cc:Work
         rdf:about="">
        <dc:format>image/svg+xml</dc:format>
        <dc:type
           rdf:resource="http://purl.org/dc/dcmitype/StillImage" />
      </cc:Work>
    </rdf:RDF>
  </metadata>
  <g
     style="display:inline"
     inkscape:groupmode="layer"
     inkscape:label="Base"
     id="layer1"
     transform="translate(0,-284)">
    <path
       sodipodi:type="arc"
       style="opacity:0.4;fill:#000000;fill-opacity:1"
       id="path2986"
       sodipodi:cx="7.5"
       sodipodi:cy="7.5"
       sodipodi:rx="7.5"
       sodipodi:ry="7.5"
       d="M 15,7.5 A 7.5,7.5 0 0 1 7.5,15 7.5,7.5 0 0 1 0,7.5 7.5,7.5 0 0 1 7.5,0 7.5,7.5 0 0 1 15,7.5 Z"
       transform="translate(0,284)" />
    <path
       style="opacity:0.8;fill:#000000;fill-opacity:1"
       d="M 7.5 0 C 3.3578644 8.3266727e-16 1.7474898e-17 3.3578644 0 7.5 C 0 11.642136 3.3578644 15 7.5 15 C 11.642136 15 15 11.642136 15 7.5 C 15 3.3578644 11.642136 -1.6478596e-15 7.5 0 z M 7.5 1 C 11.089851 1 14 3.9101491 14 7.5 C 14 11.089851 11.089851 14 7.5 14 C 3.9101491 14 1 11.089851 1 7.5 C 1 3.9101491 3.9101491 1 7.5 1 z "
       transform="translate(0,284)"
       id="path3756" />
    <path
       style="opacity:0.04;fill:#ffffff;fill-opacity:1"
       d="M 0.03125 8 C 0.020650669 8.163155 6.9962403e-19 8.3341657 0 8.5 C 0 12.642136 3.3578644 16 7.5 16 C 11.642136 16 15 12.642136 15 8.5 C 15 8.3341657 14.979349 8.163155 14.96875 8 C 14.714604 11.912057 11.476301 15 7.5 15 C 3.5236987 15 0.28539605 11.912057 0.03125 8 z "
       transform="translate(0,284)"
       id="path3761" />
    <path
       id="rect5849"
       d="m -16,282 0,16 16,0 0,-16 -16,0 z m 1,1 14,0 0,14 -14,0 0,-14 z"
       style="opacity:0.01000001;fill:#ffffff;fill-opacity:1;stroke:none"
       inkscape:connector-curvature="0" />
    <circle
       transform="matrix(0.46666667,0,0,-0.46666667,4,295)"
       id="path4189"
       style="fill:#282828;fill-opacity:1"
       d="M 15,7.5 A 7.5,7.5 0 0 1 7.5,15 7.5,7.5 0 0 1 0,7.5 7.5,7.5 0 0 1 7.5,0 7.5,7.5 0 0 1 15,7.5 Z"
       sodipodi:type="arc"
       sodipodi:ry="7.5"
       sodipodi:rx="7.5"
       sodipodi:cy="7.5"
       sodipodi:cx="7.5" />
    <path
       style="opacity:0.03;fill:#ffffff;fill-opacity:1"
       d="m 7.5,288 c -1.9329966,0 -3.5,1.567 -3.5,3.5 0,1.933 1.5670034,3.5 3.5,3.5 1.9329966,0 3.5,-1.567 3.5,-3.5 0,-1.933 -1.5670034,-3.5 -3.5,-3.5 z m 0,0.77778 c 1.5034418,0 2.722222,1.21878 2.722222,2.72222 0,1.50344 -1.2187802,2.72222 -2.722222,2.72222 -1.5034418,0 -2.7222222,-1.21878 -2.7222222,-2.72222 0,-1.50344 1.2187804,-2.72222 2.7222222,-2.72222 z"
       id="path4191"
       inkscape:connector-curvature="0" />
    <path
       style="fill:#000000;fill-opacity:1"
       d="M 7.5 3 C 5.0147186 3 3 5.0147186 3 7.5 C 3 9.9852814 5.0147186 12 7.5 12 C 9.9852814 12 12 9.9852814 12 7.5 C 12 5.0147186 9.9852814 3 7.5 3 z M 7.5 4 C 9.4329966 4 11 5.5670034 11 7.5 C 11 9.4329966 9.4329966 11 7.5 11 C 5.5670034 11 4 9.4329966 4 7.5 C 4 5.5670034 5.5670034 4 7.5 4 z "
       transform="translate(0,284)"
       id="path4399" />
    <path
       style="fill:url(#linearGradient4434);fill-opacity:1.0"
       d="M 3.0625 8 C 3.0437602 8.1667709 3 8.3282232 3 8.5 C 3 10.985281 5.0147186 13 7.5 13 C 9.9852814 13 12 10.985281 12 8.5 C 12 8.3282232 11.95624 8.1667709 11.9375 8 C 11.685111 10.246085 9.8135046 12 7.5 12 C 5.1864954 12 3.3148886 10.246085 3.0625 8 z "
       transform="translate(0,284)"
       id="path4425" />
    <circle
       style="fill:url(#linearGradient4720);fill-opacity:1;opacity:0.04"
       id="circle4712"
       transform="matrix(0,-1,-1,0,0,0)"
       cx="-291.5"
       cy="-7.5"
       r="3.5" />
  </g>
</svg>
