<?xml version="1.0" encoding="UTF-8" standalone="no"?>
<!-- Created with Inkscape (http://www.inkscape.org/) -->

<svg
   xmlns:dc="http://purl.org/dc/elements/1.1/"
   xmlns:cc="http://creativecommons.org/ns#"
   xmlns:rdf="http://www.w3.org/1999/02/22-rdf-syntax-ns#"
   xmlns:svg="http://www.w3.org/2000/svg"
   xmlns="http://www.w3.org/2000/svg"
   xmlns:sodipodi="http://sodipodi.sourceforge.net/DTD/sodipodi-0.dtd"
   xmlns:inkscape="http://www.inkscape.org/namespaces/inkscape"
   inkscape:export-ydpi="90.000000"
   inkscape:export-xdpi="90.000000"
   width="15"
   height="16"
   id="svg11300"
   sodipodi:version="0.32"
   inkscape:version="0.48.4 r9939"
   sodipodi:docname="radiobutton.svg"
   inkscape:output_extension="org.inkscape.output.svg.inkscape"
   version="1.0"
   style="display:inline;enable-background:new">
  <sodipodi:namedview
     stroke="#ef2929"
     fill="#f57900"
     id="base"
     pagecolor="#8c8c8c"
     bordercolor="#ff5e00"
     borderopacity="1"
     inkscape:pageopacity="1"
     inkscape:pageshadow="2"
     inkscape:zoom="37.722222"
     inkscape:cx="-0.44698085"
     inkscape:cy="9"
     inkscape:current-layer="layer1"
     showgrid="true"
     inkscape:grid-bbox="true"
     inkscape:document-units="px"
     inkscape:showpageshadow="false"
     inkscape:window-width="1600"
     inkscape:window-height="846"
     inkscape:window-x="0"
     inkscape:window-y="25"
     width="400px"
     height="300px"
     inkscape:snap-nodes="true"
     inkscape:snap-bbox="true"
     gridtolerance="10000"
     inkscape:object-nodes="false"
     inkscape:snap-grids="true"
     showguides="true"
     inkscape:guide-bbox="true"
     inkscape:window-maximized="1"
     inkscape:bbox-nodes="true"
     inkscape:bbox-paths="false"
     inkscape:snap-bbox-edge-midpoints="false"
     inkscape:snap-bbox-midpoints="false"
     objecttolerance="10000"
     guidetolerance="10000"
     borderlayer="true"
     showborder="true"
     guidecolor="#ff0b00"
     guideopacity="1"
     guidehicolor="#001aff"
     guidehiopacity="0.49803922"
     inkscape:object-paths="false"
     inkscape:snap-intersection-paths="true"
     inkscape:snap-smooth-nodes="false"
     inkscape:snap-midpoints="false"
     inkscape:snap-global="true"
     inkscape:snap-page="false">
    <inkscape:grid
       type="xygrid"
       id="grid3123"
       empspacing="4"
       visible="true"
       enabled="true"
       snapvisiblegridlinesonly="true" />
  </sodipodi:namedview>
  <defs
     id="defs3" />
  <metadata
     id="metadata4">
    <rdf:RDF>
      <cc:Work
         rdf:about="">
        <dc:format>image/svg+xml</dc:format>
        <dc:type
           rdf:resource="http://purl.org/dc/dcmitype/StillImage" />
        <dc:creator>
          <cc:Agent>
            <dc:title />
          </cc:Agent>
        </dc:creator>
        <dc:source />
        <cc:license
           rdf:resource="" />
        <dc:title />
        <dc:subject>
          <rdf:Bag />
        </dc:subject>
        <dc:date />
        <dc:rights>
          <cc:Agent>
            <dc:title />
          </cc:Agent>
        </dc:rights>
        <dc:publisher>
          <cc:Agent>
            <dc:title />
          </cc:Agent>
        </dc:publisher>
        <dc:identifier />
        <dc:relation />
        <dc:language />
        <dc:coverage />
        <dc:description />
        <dc:contributor>
          <cc:Agent>
            <dc:title />
          </cc:Agent>
        </dc:contributor>
      </cc:Work>
      <cc:Work
         rdf:about="">
        <dc:format>image/svg+xml</dc:format>
        <dc:type
           rdf:resource="http://purl.org/dc/dcmitype/StillImage" />
      </cc:Work>
    </rdf:RDF>
  </metadata>
  <g
     style="display:inline"
     inkscape:groupmode="layer"
     inkscape:label="Base"
     id="layer1"
     transform="translate(0,-284)">
    <path
       sodipodi:type="arc"
       style="opacity:0.4;fill:#000000;fill-opacity:1"
       id="path2986"
       sodipodi:cx="7.5"
       sodipodi:cy="7.5"
       sodipodi:rx="7.5"
       sodipodi:ry="7.5"
       d="M 15,7.5 C 15,11.642136 11.642136,15 7.5,15 3.3578644,15 0,11.642136 0,7.5 0,3.3578644 3.3578644,0 7.5,0 11.642136,0 15,3.3578644 15,7.5 z"
       transform="translate(0,284)" />
    <path
       style="opacity:0.8;fill:#000000;fill-opacity:1"
       d="M 7.5 0 C 3.3578644 8.3266727e-16 1.7474898e-17 3.3578644 0 7.5 C 0 11.642136 3.3578644 15 7.5 15 C 11.642136 15 15 11.642136 15 7.5 C 15 3.3578644 11.642136 -1.6478596e-15 7.5 0 z M 7.5 1 C 11.089851 1 14 3.9101491 14 7.5 C 14 11.089851 11.089851 14 7.5 14 C 3.9101491 14 1 11.089851 1 7.5 C 1 3.9101491 3.9101491 1 7.5 1 z "
       transform="translate(0,284)"
       id="path3756" />
    <path
       style="opacity:0.04;fill:#ffffff;fill-opacity:1"
       d="M 0.03125 8 C 0.020650669 8.163155 6.9962403e-19 8.3341657 0 8.5 C 0 12.642136 3.3578644 16 7.5 16 C 11.642136 16 15 12.642136 15 8.5 C 15 8.3341657 14.979349 8.163155 14.96875 8 C 14.714604 11.912057 11.476301 15 7.5 15 C 3.5236987 15 0.28539605 11.912057 0.03125 8 z "
       transform="translate(0,284)"
       id="path3761" />
    <path
       id="rect5849"
       d="m -16,282 0,16 16,0 0,-16 -16,0 z m 1,1 14,0 0,14 -14,0 0,-14 z"
       style="opacity:0.01000001;fill:#ffffff;fill-opacity:1;stroke:none"
       inkscape:connector-curvature="0" />
  </g>
</svg>
